<svg id="Lager_1" data-name="Lager 1" xmlns="http://www.w3.org/2000/svg" viewBox="0 0 190 60.67"><defs><style>.cls-1{fill:#3a586d;}</style></defs><title>logga</title><path class="cls-1" d="M76.31,96.21L68,82.89V96.21H64.22V75.73h3.71L76.16,89V75.73H80V96.21H76.31Z" transform="translate(-5 -69.67)"/><path class="cls-1" d="M96,96.21l-1.61-4.95h-6l-1.61,4.95h-4l6.76-20.48h3.71L100,96.21H96Zm-4.63-14.3-1.9,5.84h3.83Z" transform="translate(-5 -69.67)"/><path class="cls-1" d="M105.21,96.21v-17h-5.7V75.73h15.22v3.48H109v17h-3.83Z" transform="translate(-5 -69.67)"/><path class="cls-1" d="M128.35,75.73h3.83v14c0,4.26-2.79,6.65-7.13,6.65s-7.14-2.39-7.14-6.65v-14h3.83V89.54c0,2.1,1.07,3.34,3.31,3.34s3.31-1.24,3.31-3.34V75.73Z" transform="translate(-5 -69.67)"/><path class="cls-1" d="M147.29,96.21l-5.52-8.37h-1v8.37h-3.83V75.73h7c4.31,0,6.76,2.42,6.76,6.13A5.47,5.47,0,0,1,146,87.64l5.58,8.57h-4.31Zm-3.57-11.85c1.9,0,3.08-.81,3.08-2.5s-1.18-2.65-3.08-2.65h-3v5.15h3Z" transform="translate(-5 -69.67)"/><path class="cls-1" d="M155,96.21V75.73h13.15v3.48h-9.32v4.95h5.76v3.48h-5.76v5.09h9.32v3.48H155Z" transform="translate(-5 -69.67)"/><path class="cls-1" d="M172.45,82.95l0.78-3.37a2.14,2.14,0,0,1-.89-1.84,2.19,2.19,0,0,1,4.37-.06,4.15,4.15,0,0,1-.32,1.41l-1.5,3.85h-2.44Z" transform="translate(-5 -69.67)"/><path class="cls-1" d="M190.9,82.81c-0.26-2.56-1.3-3.74-2.94-3.74a2.41,2.41,0,0,0-2.68,2.22c0,1.47,1.35,2,2.47,2.45l2.85,1.12c2.39,0.95,4.4,2.24,4.4,5.44,0,4-3.08,6.1-6.91,6.1-4.23,0-7.25-2.62-7.25-6.93l3.45-.75c0.29,2.62,1.47,4.17,3.74,4.17,1.47,0,3.08-.63,3.08-2.36,0-1.55-1.35-2.07-3-2.7l-2.68-1.07c-2.47-1-4.06-2.42-4.06-5.18,0-3.8,3-6,6.59-6,3.8,0,6.33,2.42,6.33,6.5Z" transform="translate(-5 -69.67)"/><path class="cls-1" d="M64.22,124.3V103.82h6.1c4.14,0,6.44,2.3,6.44,5.73a4.8,4.8,0,0,1-2.07,4.23,5,5,0,0,1,2.65,4.78c0,3.48-2.3,5.75-6.44,5.75H64.22Zm5.9-11.59c2.44,0,3.94-1,3.94-3.14s-1.5-3.22-3.94-3.22H66.87v6.36h3.25Zm0.57,9.06c2.45,0,3.94-1.12,3.94-3.28s-1.5-3.25-3.94-3.25H66.87v6.53H70.7Z" transform="translate(-5 -69.67)"/><path class="cls-1" d="M81.52,124.3V103.82H94v2.53H84.17v6.36h6.07v2.53H84.17v6.53H94v2.53H81.52Z" transform="translate(-5 -69.67)"/><path class="cls-1" d="M101.5,114.35c-2.33-.92-3.86-2.3-3.86-5,0-3.6,2.79-5.73,6.33-5.73s6,2.16,6,5.81l-2.36.52c-0.26-2.59-1.64-3.8-3.65-3.8-1.84,0-3.57,1-3.57,2.93s1.64,2.59,3,3.14l3,1.18c2.39,0.95,4.23,2.21,4.23,5.24,0,3.77-2.94,5.81-6.65,5.81-4,0-6.93-2.36-6.93-6.27l2.36-.52c0.29,2.65,1.75,4.26,4.49,4.26,2,0,4-.86,4-3.08,0-2-1.7-2.68-3.54-3.39Z" transform="translate(-5 -69.67)"/><path class="cls-1" d="M118.74,124.3v-18h-6v-2.53H127.4v2.53h-6v18h-2.65Z" transform="translate(-5 -69.67)"/><polygon class="cls-1" points="51.1 35.89 44.47 52.19 27.91 45.38 51.1 35.89"/><polygon class="cls-1" points="47.33 19.84 47.33 34.84 28.06 27.35 47.33 19.84"/><polygon class="cls-1" points="45.75 36.11 25.52 44.44 5.36 36.11 25.54 28.32 45.75 36.11"/><polygon class="cls-1" points="42.49 53.31 25.54 60.67 8.44 53.31 25.52 46.36 42.49 53.31"/><polygon class="cls-1" points="37.51 7.6 42.37 18.54 27.73 12.01 37.51 7.6"/><polygon class="cls-1" points="41.7 20.16 25.54 26.4 9.34 20.16 25.52 12.95 41.7 20.16"/><polygon class="cls-1" points="33.31 7.6 25.52 11.04 17.75 7.6 25.52 0 33.31 7.6"/><polygon class="cls-1" points="23.37 12.01 8.73 18.54 13.59 7.6 23.37 12.01"/><polygon class="cls-1" points="23.19 45.38 6.63 52.19 0 35.89 23.19 45.38"/><polygon class="cls-1" points="23.04 27.35 3.77 34.84 3.77 19.84 23.04 27.35"/></svg>